<svg width="48" height="49" viewBox="0 0 48 49" fill="none" xmlns="http://www.w3.org/2000/svg">
<path d="M0 30.5031C0 22.4802 4.74802 16.5555 13.2747 13.6928L13.3261 13.7955C7.65803 17.2172 4.95338 22.5829 4.95338 30.5031C4.95338 38.4232 7.66008 43.7355 13.3261 47.3133L13.2747 47.4161C4.74802 44.5041 0 38.526 0 30.5031ZM6.17735 30.5544C6.17735 19.1592 12.9174 12.2111 23.5368 12.2111C34.1561 12.2111 40.8962 19.1592 40.8962 30.5544C40.8962 41.9497 34.1048 48.9985 23.5368 48.9985C12.9687 48.9985 6.17735 41.8962 6.17735 30.5544ZM35.7395 30.5031C35.7395 18.4954 30.4801 13.3866 23.5368 13.3866C16.5934 13.3866 11.334 18.4954 11.334 30.5031C11.334 42.5107 16.5934 47.7737 23.5368 47.7737C30.4801 47.7737 35.7395 42.5107 35.7395 30.5031ZM13.5807 10.4746L15.3181 8.58393L23.5388 4.08749L31.5049 8.27773L33.4969 10.4766L32.9856 11.089L23.5388 6.69534L14.0921 11.089L13.5807 10.4766V10.4746ZM17.2054 6.53916L23.1794 0H23.8941L29.8681 6.53916L29.7655 6.64191L23.5368 3.16683L17.3081 6.64191L17.2075 6.53916H17.2054ZM33.7475 47.3133C39.4155 43.7355 42.1202 38.4232 42.1202 30.5031C42.1202 22.5829 39.4135 17.2172 33.7475 13.7955L33.7988 13.6928C42.3255 16.5534 47.0756 22.4802 47.0756 30.5031C47.0756 38.526 42.3276 44.502 33.7988 47.4161L33.7475 47.3133Z" fill="#815A04"/>
</svg>
