<svg width="134" height="23" viewBox="0 0 134 23" fill="none" xmlns="http://www.w3.org/2000/svg">
<path d="M0 11.0725C0 4.969 4.96365 0.00195312 11.065 0.00195312C17.1664 0.00195312 22.128 4.969 22.128 11.0725C22.128 17.176 17.1643 22.1451 11.065 22.1451C4.9657 22.1451 0 17.178 0 11.0725ZM18.7497 11.0725C18.7497 5.08408 15.3017 0.213629 11.065 0.213629C6.82835 0.213629 3.38029 5.08408 3.38029 11.0725C3.38029 17.0609 6.8263 21.9314 11.065 21.9314C15.3037 21.9314 18.7497 17.0588 18.7497 11.0725Z" fill="#815A04"/>
<path d="M34.6162 16.8678C34.2301 16.9213 33.8358 16.95 33.4353 16.95H28.3464V20.9697C28.3464 21.4999 28.7797 21.9315 29.3096 21.9315V22.1431H24.005V21.9315C24.5369 21.9315 24.9682 21.4999 24.9682 20.9676V1.17549C24.9682 0.645291 24.5369 0.211676 24.005 0.211676V0H33.4353C38.1053 0 41.9045 3.80185 41.9045 8.47502C41.9045 11.5206 40.2904 14.1942 37.8753 15.6882L41.2063 20.9101C41.5657 21.4732 42.3111 21.9315 42.8677 21.9315V22.1431H36.9511V21.9315C37.1668 21.9315 37.3208 21.8616 37.3927 21.7321C37.4871 21.5636 37.442 21.3067 37.2695 21.0272L34.6162 16.8678ZM33.4353 16.7384C36.2406 16.7384 38.5242 13.031 38.5242 8.47706C38.5242 3.92308 36.2406 0.21579 33.4353 0.21579H28.3464V16.7404H33.4353V16.7384Z" fill="#815A04"/>
<path d="M44.7673 11.0725C44.7673 4.969 49.7309 0.00195312 55.8323 0.00195312C61.9337 0.00195312 66.8952 4.969 66.8952 11.0725C66.8952 17.176 61.9316 22.1451 55.8323 22.1451C49.733 22.1451 44.7673 17.178 44.7673 11.0725ZM63.517 11.0725C63.517 5.08408 60.069 0.213629 55.8323 0.213629C51.5956 0.213629 48.1476 5.08408 48.1476 11.0725C48.1476 17.0609 51.5936 21.9314 55.8323 21.9314C60.071 21.9314 63.517 17.0588 63.517 11.0725Z" fill="#815A04"/>
<path d="M83.9487 0H84.8975V0.211676C84.3492 0.211676 83.7454 0.659671 83.5503 1.20837L76.149 22.0712L76.0484 22.0363L75.9477 22.0712L68.5464 1.21043C68.3513 0.659673 67.7455 0.211676 67.1992 0.211676V0H68.3431H71.516H72.7317V0.211676C72.4914 0.211676 72.2943 0.300037 72.1772 0.462385C72.0499 0.637064 72.0273 0.879559 72.1115 1.1426L77.7303 16.9808L83.349 1.14056C83.4353 0.877515 83.4127 0.637075 83.2854 0.460341C83.1683 0.300047 82.9732 0.211676 82.733 0.211676V0H83.9487Z" fill="#815A04"/>
<path d="M91.1426 22.143H86.7991V21.9314C87.329 21.9314 87.7602 21.4998 87.7623 20.9696V1.17745C87.7623 0.647244 87.331 0.213629 86.7991 0.213629V0.00195312H92.1037V0.213629C91.5718 0.213629 91.1405 0.645189 91.1405 1.17745V20.9696C91.1405 21.4998 91.5738 21.9314 92.1037 21.9314V22.143H91.1405H91.1426Z" fill="#815A04"/>
<path d="M110.751 0H111.7V0.211676C111.151 0.211676 110.547 0.659671 110.352 1.20837L102.951 22.0712L102.85 22.0363L102.75 22.0712L95.3485 1.21043C95.1534 0.659673 94.5475 0.211676 94.0013 0.211676V0H95.1452H98.318H99.5338V0.211676C99.2935 0.211676 99.0964 0.300037 98.9793 0.462385C98.852 0.637064 98.8294 0.879559 98.9136 1.1426L104.532 16.9808L110.151 1.14056C110.237 0.877515 110.215 0.637075 110.087 0.460341C109.97 0.300047 109.775 0.211676 109.535 0.211676V0H110.751Z" fill="#815A04"/>
<path d="M111.244 11.0725C111.244 4.969 116.207 0.00195312 122.309 0.00195312C128.41 0.00195312 133.372 4.969 133.372 11.0725C133.372 17.176 128.408 22.1451 122.309 22.1451C116.209 22.1451 111.244 17.178 111.244 11.0725ZM129.991 11.0725C129.991 5.08408 126.543 0.213629 122.307 0.213629C118.07 0.213629 114.622 5.08408 114.622 11.0725C114.622 17.0609 118.068 21.9314 122.307 21.9314C126.545 21.9314 129.991 17.0588 129.991 11.0725Z" fill="#815A04"/>
</svg>
