<svg width="134" height="84" viewBox="0 0 134 84" fill="none" xmlns="http://www.w3.org/2000/svg">
<g clip-path="url(#clip0_1_6174)">
<path d="M0.314209 72.7322C0.314209 66.6287 5.27786 61.6616 11.3792 61.6616C17.4806 61.6616 22.4422 66.6287 22.4422 72.7322C22.4422 78.8356 17.4785 83.8047 11.3792 83.8047C5.27991 83.8047 0.314209 78.8377 0.314209 72.7322ZM19.0639 72.7322C19.0639 66.7437 15.6159 61.8733 11.3792 61.8733C7.14256 61.8733 3.6945 66.7437 3.6945 72.7322C3.6945 78.7206 7.14051 83.591 11.3792 83.591C15.6179 83.591 19.0639 78.7185 19.0639 72.7322Z" fill="#815A04"/>
<path d="M34.9304 78.5275C34.5443 78.5809 34.15 78.6097 33.7495 78.6097H28.6606V82.6294C28.6606 83.1596 29.0939 83.5911 29.6238 83.5911V83.8028H24.3192V83.5911C24.8511 83.5911 25.2824 83.1596 25.2824 82.6273V62.8352C25.2824 62.305 24.8511 61.8713 24.3192 61.8713V61.6597H33.7495C38.4195 61.6597 42.2187 65.4615 42.2187 70.1347C42.2187 73.1803 40.6046 75.8539 38.1895 77.3479L41.5205 82.5698C41.8799 83.1328 42.6254 83.5911 43.1819 83.5911V83.8028H37.2654V83.5911C37.481 83.5911 37.635 83.5212 37.7069 83.3918C37.8014 83.2233 37.7562 82.9664 37.5837 82.6869L34.9304 78.5275ZM33.7495 78.398C36.5548 78.398 38.8384 74.6907 38.8384 70.1367C38.8384 65.5828 36.5548 61.8755 33.7495 61.8755H28.6606V78.4001H33.7495V78.398Z" fill="#815A04"/>
<path d="M45.0815 72.7322C45.0815 66.6287 50.0451 61.6616 56.1465 61.6616C62.2479 61.6616 67.2095 66.6287 67.2095 72.7322C67.2095 78.8356 62.2458 83.8047 56.1465 83.8047C50.0472 83.8047 45.0815 78.8377 45.0815 72.7322ZM63.8312 72.7322C63.8312 66.7437 60.3832 61.8733 56.1465 61.8733C51.9098 61.8733 48.4618 66.7437 48.4618 72.7322C48.4618 78.7206 51.9078 83.591 56.1465 83.591C60.3852 83.591 63.8312 78.7185 63.8312 72.7322Z" fill="#815A04"/>
<path d="M84.2629 61.6597H85.2117V61.8713C84.6634 61.8713 84.0596 62.3193 83.8645 62.868L76.4632 83.7309L76.3626 83.6959L76.2619 83.7309L68.8606 62.8701C68.6655 62.3193 68.0597 61.8713 67.5134 61.8713V61.6597H68.6573H71.8302H73.0459V61.8713C72.8057 61.8713 72.6085 61.9597 72.4914 62.1221C72.3641 62.2967 72.3415 62.5392 72.4257 62.8023L78.0445 78.6405L83.6633 62.8002C83.7495 62.5372 83.7269 62.2967 83.5996 62.12C83.4825 61.9597 83.2874 61.8713 83.0472 61.8713V61.6597H84.2629Z" fill="#815A04"/>
<path d="M91.4568 83.8027H87.1133V83.591C87.6432 83.591 88.0744 83.1595 88.0765 82.6293V62.8371C88.0765 62.3069 87.6452 61.8733 87.1133 61.8733V61.6616H92.4179V61.8733C91.886 61.8733 91.4547 62.3049 91.4547 62.8371V82.6293C91.4547 83.1595 91.8881 83.591 92.4179 83.591V83.8027H91.4547H91.4568Z" fill="#815A04"/>
<path d="M111.065 61.6597H112.014V61.8713C111.465 61.8713 110.862 62.3193 110.667 62.868L103.265 83.7309L103.165 83.6959L103.064 83.7309L95.6627 62.8701C95.4676 62.3193 94.8618 61.8713 94.3155 61.8713V61.6597H95.4594H98.6322H99.848V61.8713C99.6077 61.8713 99.4106 61.9597 99.2935 62.1221C99.1662 62.2967 99.1436 62.5392 99.2278 62.8023L104.847 78.6405L110.465 62.8002C110.552 62.5372 110.529 62.2967 110.402 62.12C110.285 61.9597 110.09 61.8713 109.849 61.8713V61.6597H111.065Z" fill="#815A04"/>
<path d="M111.558 72.7322C111.558 66.6287 116.521 61.6616 122.623 61.6616C128.724 61.6616 133.686 66.6287 133.686 72.7322C133.686 78.8356 128.722 83.8047 122.623 83.8047C116.524 83.8047 111.558 78.8377 111.558 72.7322ZM130.305 72.7322C130.305 66.7437 126.857 61.8733 122.621 61.8733C118.384 61.8733 114.936 66.7437 114.936 72.7322C114.936 78.7206 118.382 83.591 122.621 83.591C126.859 83.591 130.305 78.7185 130.305 72.7322Z" fill="#815A04"/>
<path d="M43.457 31.4708C43.457 23.4479 48.205 17.5232 56.7318 14.6605L56.7831 14.7633C51.1151 18.1849 48.4104 23.5507 48.4104 31.4708C48.4104 39.391 51.1171 44.7033 56.7831 48.2811L56.7318 48.3839C48.205 45.4719 43.457 39.4937 43.457 31.4708ZM49.6344 31.5222C49.6344 20.127 56.3744 13.1789 66.9938 13.1789C77.6132 13.1789 84.3532 20.127 84.3532 31.5222C84.3532 42.9174 77.5618 49.9662 66.9938 49.9662C56.4258 49.9662 49.6344 42.864 49.6344 31.5222ZM79.1965 31.4708C79.1965 19.4632 73.9371 14.3543 66.9938 14.3543C60.0504 14.3543 54.7911 19.4632 54.7911 31.4708C54.7911 43.4785 60.0504 48.7414 66.9938 48.7414C73.9371 48.7414 79.1965 43.4785 79.1965 31.4708ZM57.0378 11.4423L58.7751 9.5517L66.9958 5.05526L74.9619 9.2455L76.9539 11.4444L76.4426 12.0568L66.9958 7.66312L57.5491 12.0568L57.0378 11.4444V11.4423ZM60.6624 7.50693L66.6365 0.967773H67.3511L73.3252 7.50693L73.2225 7.60968L66.9938 4.1346L60.7651 7.60968L60.6645 7.50693H60.6624ZM77.2045 48.2811C82.8725 44.7033 85.5772 39.391 85.5772 31.4708C85.5772 23.5507 82.8705 18.1849 77.2045 14.7633L77.2558 14.6605C85.7826 17.5212 90.5326 23.4479 90.5326 31.4708C90.5326 39.4937 85.7846 45.4698 77.2558 48.3839L77.2045 48.2811Z" fill="#815A04"/>
</g>
<defs>
<clipPath id="clip0_1_6174">
<rect width="134" height="84" fill="white"/>
</clipPath>
</defs>
</svg>
