<svg width="85" height="56" viewBox="0 0 85 56" fill="none" xmlns="http://www.w3.org/2000/svg">
<path d="M28.5192 55.9998H9.61845C8.67371 55.9998 8.02196 55.0431 8.35912 54.1511L11.1632 46.7318C11.3627 46.204 11.8636 45.8555 12.4225 45.8555H25.715C26.274 45.8555 26.775 46.2041 26.9744 46.7318L29.7784 54.1511C30.1157 55.0432 29.464 55.9998 28.5192 55.9998Z" fill="#292C2D"/>
<path d="M51.9502 55.9998H33.0494C32.1047 55.9998 31.4529 55.0431 31.7901 54.1511L34.5941 46.7318C34.7936 46.204 35.2946 45.8555 35.8535 45.8555H49.146C49.7049 45.8555 50.2059 46.2041 50.4053 46.7318L53.2094 54.1511C53.5467 55.0432 52.8949 55.9998 51.9502 55.9998Z" fill="#292C2D"/>
<path d="M75.3811 55.9998H56.4803C55.5356 55.9998 54.8838 55.0431 55.221 54.1511L58.0251 46.7318C58.2245 46.204 58.7255 45.8555 59.2844 45.8555H72.5769C73.1358 45.8555 73.6369 46.2041 73.8363 46.7318L76.6403 54.1511C76.9776 55.0432 76.3258 55.9998 75.3811 55.9998Z" fill="#292C2D"/>
<path d="M40.235 43.5491H21.3342C20.3895 43.5491 19.7377 42.5924 20.0749 41.7004L22.8789 34.2811C23.0784 33.7533 23.5794 33.4048 24.1383 33.4048H37.4308C37.9897 33.4048 38.4907 33.7534 38.6901 34.2811L41.4942 41.7004C41.8314 42.5925 41.1797 43.5491 40.235 43.5491Z" fill="#292C2D"/>
<path d="M63.6659 43.5491H44.7651C43.8204 43.5491 43.1686 42.5924 43.5058 41.7004L46.3098 34.2811C46.5093 33.7533 47.0103 33.4048 47.5692 33.4048H60.8617C61.4206 33.4048 61.9216 33.7534 62.121 34.2811L64.9251 41.7004C65.2624 42.5925 64.6106 43.5491 63.6659 43.5491Z" fill="#292C2D"/>
<path d="M51.9502 31.22H33.0494C32.1047 31.22 31.4529 30.2633 31.7901 29.3713L34.5941 21.952C34.7936 21.4242 35.2946 21.0757 35.8535 21.0757H49.146C49.7049 21.0757 50.2059 21.4243 50.4053 21.952L53.2094 29.3713C53.5467 30.2633 52.8949 31.22 51.9502 31.22Z" fill="#292C2D"/>
<path d="M28.1523 16.4801C28.0241 16.4801 27.9034 16.4015 27.8546 16.2734L23.347 4.4173C23.2837 4.2512 23.3659 4.06477 23.5302 4.00095C23.6949 3.93723 23.879 4.02023 23.9422 4.18615L28.4498 16.0422C28.5131 16.2083 28.4309 16.3947 28.2666 16.4586C28.2289 16.4732 28.1903 16.4801 28.1523 16.4801Z" fill="#292C2D"/>
<path d="M16.6293 24.9245C16.5415 24.9245 16.4541 24.8882 16.3912 24.8166L8.03106 15.3335C7.91388 15.2006 7.92554 14.9969 8.05699 14.8785C8.18836 14.7602 8.39011 14.7719 8.5071 14.9047L16.8672 24.3879C16.9844 24.5207 16.9727 24.7244 16.8413 24.8429C16.7805 24.8977 16.7048 24.9245 16.6293 24.9245Z" fill="#292C2D"/>
<path d="M11.9637 39.7243C11.9238 39.7243 11.8832 39.7167 11.844 39.7007L0.199067 34.9252C0.035941 34.8582 -0.0427108 34.6703 0.0234417 34.5054C0.0896882 34.3405 0.275641 34.2613 0.438767 34.3279L12.0837 39.1034C12.2468 39.1704 12.3255 39.3583 12.2593 39.5232C12.2089 39.6484 12.0896 39.7243 11.9637 39.7243Z" fill="#292C2D"/>
<path d="M56.8475 16.4803C56.8096 16.4803 56.7709 16.4733 56.7333 16.4587C56.5689 16.3949 56.4868 16.2085 56.55 16.0424L61.0577 4.18629C61.1208 4.02018 61.305 3.93708 61.4696 4.00109C61.634 4.06491 61.7161 4.25134 61.6529 4.41744L57.1452 16.2735C57.0965 16.4016 56.9757 16.4803 56.8475 16.4803Z" fill="#292C2D"/>
<path d="M68.3708 24.9246C68.2953 24.9246 68.2197 24.8977 68.1589 24.8429C68.0274 24.7245 68.0158 24.5209 68.1329 24.3879L76.493 14.9048C76.61 14.7719 76.8117 14.7601 76.943 14.8785C77.0745 14.997 77.0862 15.2006 76.969 15.3335L68.609 24.8167C68.546 24.8882 68.4585 24.9246 68.3708 24.9246Z" fill="#292C2D"/>
<path d="M73.0362 39.7242C72.9102 39.7242 72.791 39.6483 72.7406 39.523C72.6745 39.3581 72.7531 39.1702 72.9162 39.1032L84.5612 34.3278C84.7242 34.2612 84.9104 34.3404 84.9766 34.5053C85.0427 34.6701 84.9641 34.8581 84.8009 34.925L73.1559 39.7005C73.1169 39.7166 73.0762 39.7242 73.0362 39.7242Z" fill="#292C2D"/>
<path d="M42.4997 13.0446C42.3236 13.0446 42.1809 12.9004 42.1809 12.7224V0.322234C42.1809 0.14426 42.3236 0 42.4997 0C42.6758 0 42.8186 0.14426 42.8186 0.322234V12.7224C42.8186 12.9004 42.6759 13.0446 42.4997 13.0446Z" fill="#292C2D"/>
</svg>
