<svg width="375" height="813" viewBox="0 0 375 813" fill="none" xmlns="http://www.w3.org/2000/svg">
<g clip-path="url(#clip0_225_3616)">
<rect width="375" height="813" fill="#F2F2F2"/>
<path d="M-38.9971 51.1793C-80.4185 105.953 -69.5937 183.94 -14.8205 225.362C39.9528 266.783 117.941 255.958 159.362 201.185C200.783 146.412 189.959 68.4241 135.185 27.0027C80.4121 -14.4187 2.42433 -3.59391 -38.9971 51.1793ZM122.96 173.657C110.369 190.306 91.6795 201.272 71.0033 204.142C50.3271 207.012 29.3577 201.551 12.7081 188.96C-3.94151 176.369 -14.9074 157.679 -17.7773 137.003C-20.6472 116.327 -15.1859 95.3575 -2.59491 78.7079C9.99608 62.0583 28.6854 51.0923 49.3617 48.2225C70.0379 45.3526 91.0073 50.8139 107.657 63.4049C124.306 75.9959 135.272 94.6852 138.142 115.361C141.012 136.038 135.551 157.007 122.96 173.657Z" fill="url(#paint0_linear_225_3616)" fill-opacity="0.08"/>
<path d="M230.316 -41.8426C183.199 -21.3221 161.637 33.5135 182.157 80.6304C202.678 127.747 257.513 149.31 304.63 128.789C351.747 108.269 373.309 53.4332 352.789 6.31627C332.268 -40.8006 277.433 -62.3631 230.316 -41.8426ZM290.992 97.4755C276.67 103.713 260.456 104.006 245.918 98.2892C231.38 92.5725 219.709 81.3148 213.471 66.9925C207.233 52.6703 206.94 36.4567 212.657 21.9186C218.374 7.38053 229.632 -4.29117 243.954 -10.5288C258.276 -16.7665 274.49 -17.0592 289.028 -11.3426C303.566 -5.6259 315.238 5.63187 321.475 19.9541C327.713 34.2764 328.006 50.49 322.289 65.028C316.572 79.5661 305.314 91.2378 290.992 97.4755Z" fill="url(#paint1_linear_225_3616)" fill-opacity="0.08"/>
<path d="M9.69564 80.0049L-38.9788 132.083L65.518 186.544L9.69564 80.0049Z" stroke="#DCDCDC" stroke-width="0.5"/>
<circle cx="9.69546" cy="80.005" r="0.521141" stroke="#DCDCDC"/>
<circle cx="65.518" cy="186.544" r="0.521141" stroke="#DCDCDC"/>
<path d="M45.3616 673.589L15.0527 706.017L80.1215 739.929L45.3616 673.589Z" stroke="#DCDCDC" stroke-width="0.5"/>
<circle cx="45.3617" cy="673.589" r="0.5" stroke="#DCDCDC" stroke-width="0.271703"/>
<circle cx="15.0528" cy="706.017" r="0.5" stroke="#DCDCDC" stroke-width="0.271703"/>
<circle cx="80.1217" cy="739.929" r="0.5" stroke="#DCDCDC" stroke-width="0.271703"/>
<path d="M347.321 395.172L289.219 457.337L413.955 522.346L347.321 395.172Z" stroke="#DCDCDC" stroke-width="0.5"/>
<circle cx="347.321" cy="395.172" r="0.718923" stroke="#DCDCDC"/>
<circle cx="289.219" cy="457.337" r="0.718923" stroke="#DCDCDC"/>
<path d="M-14.422 274.193L-20.1403 301.735L113.894 311.483L-14.422 274.193Z" stroke="#DCDCDC" stroke-width="0.5"/>
<circle cx="113.684" cy="311.135" r="0.634721" stroke="#DCDCDC"/>
<circle cx="33.6835" cy="231.135" r="0.634721" stroke="#DCDCDC"/>
<circle cx="201.684" cy="271.135" r="0.634721" stroke="#DCDCDC"/>
<circle cx="81.6835" cy="47.1347" r="0.634721" stroke="#DCDCDC"/>
<path d="M332.342 184.437L312.128 46.1279L398.305 144.008L332.342 184.437Z" stroke="#DCDCDC" stroke-width="0.5"/>
<circle cx="312.128" cy="46.1278" r="1.62784" stroke="#DCDCDC"/>
<circle cx="333.406" cy="184.437" r="1.62784" stroke="#DCDCDC"/>
<circle cx="96.1278" cy="150.128" r="1.62784" stroke="#DCDCDC"/>
<circle cx="200.128" cy="86.1278" r="1.62784" stroke="#DCDCDC"/>
<circle cx="312.128" cy="246.128" r="1.62784" stroke="#DCDCDC"/>
<circle cx="344.128" cy="374.128" r="1.62784" stroke="#DCDCDC"/>
<circle cx="72.1278" cy="342.128" r="1.62784" stroke="#DCDCDC"/>
<circle cx="33.6835" cy="623.135" r="0.634721" stroke="#DCDCDC"/>
<circle cx="201.684" cy="663.135" r="0.634721" stroke="#DCDCDC"/>
<circle cx="201.684" cy="543.135" r="0.634721" stroke="#DCDCDC"/>
<circle cx="353.684" cy="559.135" r="0.634721" stroke="#DCDCDC"/>
<circle cx="144.128" cy="550.128" r="1.62784" stroke="#DCDCDC"/>
<circle cx="200.128" cy="478.128" r="1.62784" stroke="#DCDCDC"/>
<circle cx="64.1278" cy="478.128" r="1.62784" stroke="#DCDCDC"/>
<circle cx="312.128" cy="638.128" r="1.62784" stroke="#DCDCDC"/>
<circle cx="344.128" cy="766.128" r="1.62784" stroke="#DCDCDC"/>
<circle cx="88.1278" cy="678.128" r="1.62784" stroke="#DCDCDC"/>
<path d="M188.049 153.115L245.141 195.646L178.853 191.432L188.049 153.115Z" stroke="#DCDCDC" stroke-width="0.5"/>
<circle cx="245.141" cy="195.646" r="0.583764" transform="rotate(135 245.141 195.646)" stroke="#DCDCDC"/>
<circle cx="179.236" cy="191.815" r="0.583764" transform="rotate(135 179.236 191.815)" stroke="#DCDCDC"/>
<circle cx="187.666" cy="153.498" r="0.583764" transform="rotate(135 187.666 153.498)" stroke="#DCDCDC"/>
<path d="M306.648 744.884L290.681 635.634L358.752 712.95L306.648 744.884Z" stroke="#DCDCDC" stroke-width="0.5"/>
<circle cx="290.681" cy="635.634" r="1.18078" stroke="#DCDCDC"/>
<circle cx="358.752" cy="712.109" r="1.18078" stroke="#DCDCDC"/>
<circle cx="307.489" cy="744.884" r="1.18078" stroke="#DCDCDC"/>
<path d="M-17.9086 536.191L91.342 520.223L14.0262 588.295L-17.9086 536.191Z" stroke="#DCDCDC" stroke-width="0.5"/>
<circle cx="91.3419" cy="520.223" r="1.18078" transform="rotate(90 91.3419 520.223)" stroke="#DCDCDC"/>
<circle cx="14.8666" cy="588.295" r="1.18078" transform="rotate(90 14.8666 588.295)" stroke="#DCDCDC"/>
</g>
<defs>
<linearGradient id="paint0_linear_225_3616" x1="-38.9971" y1="51.1794" x2="159.362" y2="201.185" gradientUnits="userSpaceOnUse">
<stop stop-color="white"/>
<stop offset="0.421136" stop-color="white" stop-opacity="0"/>
<stop offset="1" stop-color="white" stop-opacity="0"/>
</linearGradient>
<linearGradient id="paint1_linear_225_3616" x1="230.316" y1="-41.8426" x2="304.63" y2="128.789" gradientUnits="userSpaceOnUse">
<stop stop-color="white"/>
<stop offset="0.421136" stop-color="white" stop-opacity="0"/>
<stop offset="1" stop-color="white" stop-opacity="0"/>
</linearGradient>
<clipPath id="clip0_225_3616">
<rect width="375" height="813" fill="white"/>
</clipPath>
</defs>
</svg>
