<svg width="18" height="17" viewBox="0 0 18 17" fill="none" xmlns="http://www.w3.org/2000/svg">
<path d="M11.3758 14.19C12.0866 14.3964 12.8232 14.5008 13.5633 14.5C14.7537 14.5017 15.9285 14.2303 16.9975 13.7067C17.0291 12.9598 16.8164 12.2229 16.3915 11.6078C15.9666 10.9927 15.3528 10.5328 14.6431 10.2979C13.9334 10.063 13.1664 10.0659 12.4585 10.3062C11.7505 10.5464 11.1402 11.0109 10.72 11.6292M11.3758 14.19V14.1875C11.3758 13.26 11.1375 12.3875 10.72 11.6292M11.3758 14.19V14.2783C9.77207 15.2442 7.93468 15.7532 6.0625 15.75C4.12 15.75 2.3025 15.2125 0.750834 14.2783L0.750001 14.1875C0.749361 13.0079 1.14134 11.8616 1.86415 10.9294C2.58696 9.99717 3.59948 9.33203 4.74207 9.03883C5.88467 8.74564 7.09235 8.84107 8.17472 9.31008C9.25709 9.77908 10.1526 10.595 10.72 11.6292M8.87583 3.5625C8.87583 4.30842 8.57952 5.02379 8.05207 5.55124C7.52463 6.07868 6.80926 6.375 6.06333 6.375C5.31741 6.375 4.60204 6.07868 4.0746 5.55124C3.54715 5.02379 3.25083 4.30842 3.25083 3.5625C3.25083 2.81658 3.54715 2.10121 4.0746 1.57376C4.60204 1.04632 5.31741 0.75 6.06333 0.75C6.80926 0.75 7.52463 1.04632 8.05207 1.57376C8.57952 2.10121 8.87583 2.81658 8.87583 3.5625ZM15.7508 5.4375C15.7508 6.01766 15.5204 6.57406 15.1101 6.9843C14.6999 7.39453 14.1435 7.625 13.5633 7.625C12.9832 7.625 12.4268 7.39453 12.0165 6.9843C11.6063 6.57406 11.3758 6.01766 11.3758 5.4375C11.3758 4.85734 11.6063 4.30094 12.0165 3.8907C12.4268 3.48047 12.9832 3.25 13.5633 3.25C14.1435 3.25 14.6999 3.48047 15.1101 3.8907C15.5204 4.30094 15.7508 4.85734 15.7508 5.4375Z" stroke="#7E7E7E" stroke-width="1.5" stroke-linecap="round" stroke-linejoin="round"/>
</svg>
