<svg width="26" height="26" viewBox="0 0 26 26" fill="none" xmlns="http://www.w3.org/2000/svg">
<path fill-rule="evenodd" clip-rule="evenodd" d="M13 0C5.8203 0 0 5.8203 0 13C0 20.1797 5.8203 26 13 26C20.1797 26 26 20.1797 26 13C26 5.8203 20.1797 0 13 0ZM14 9C14 8.44771 13.5523 8 13 8C12.4477 8 12 8.44771 12 9V12H9C8.44772 12 8 12.4477 8 13C8 13.5523 8.44771 14 9 14H12V17C12 17.5523 12.4477 18 13 18C13.5523 18 14 17.5523 14 17V14H17C17.5523 14 18 13.5523 18 13C18 12.4477 17.5523 12 17 12H14V9Z" fill="#242627"/>
</svg>
