<svg width="18" height="17" viewBox="0 0 18 17" fill="none" xmlns="http://www.w3.org/2000/svg">
<path d="M0.599976 0.600006H1.75471C2.17945 0.600006 2.55112 0.885551 2.66056 1.29595L2.97989 2.49342M4.97498 9.97501C3.59426 9.97501 2.47498 11.0943 2.47498 12.475H15.6M4.97498 9.97501H14.3235C15.2578 8.05781 16.0731 6.07197 16.7597 4.02709C12.7917 3.01372 8.63374 2.47501 4.34998 2.47501C3.89181 2.47501 3.43509 2.48117 2.97989 2.49342M4.97498 9.97501L2.97989 2.49342M3.72498 14.975C3.72498 15.3202 3.44515 15.6 3.09998 15.6C2.7548 15.6 2.47498 15.3202 2.47498 14.975C2.47498 14.6298 2.7548 14.35 3.09998 14.35C3.44515 14.35 3.72498 14.6298 3.72498 14.975ZM14.35 14.975C14.35 15.3202 14.0702 15.6 13.725 15.6C13.3798 15.6 13.1 15.3202 13.1 14.975C13.1 14.6298 13.3798 14.35 13.725 14.35C14.0702 14.35 14.35 14.6298 14.35 14.975Z" stroke="#C0C0C0" stroke-width="1.2" stroke-linecap="round" stroke-linejoin="round"/>
</svg>
