<svg width="20" height="20" viewBox="0 0 20 20" fill="none" xmlns="http://www.w3.org/2000/svg">
<path d="M5.62439 2.49526V4.37026M14.3747 2.49414V4.36914M2.49811 15.618V6.24288C2.49811 5.20739 3.33761 4.36797 4.37319 4.36797H15.623C16.6586 4.36797 17.4981 5.2074 17.4981 6.24288V15.618M2.49811 15.618C2.49811 16.6535 3.33761 17.493 4.37319 17.493H15.623C16.6586 17.493 17.4981 16.6535 17.4981 15.618M2.49811 15.618V9.36829C2.49811 8.3328 3.33761 7.49337 4.37319 7.49337H15.623C16.6586 7.49337 17.4981 8.3328 17.4981 9.36829V15.618M11.8731 10.6182H13.7481M6.24808 12.4932H9.99808M9.99986 10.6182H10.0045V10.6229H9.99986V10.6182ZM9.99926 14.3684H10.0039V14.3731H9.99926V14.3684ZM8.12396 14.369H8.12865V14.3737H8.12396V14.369ZM6.24868 14.3684H6.25337V14.3731H6.24868V14.3684ZM11.8739 12.4963H11.8786V12.501H11.8739V12.4963ZM11.8746 14.369H11.8793V14.3737H11.8746V14.369ZM13.7498 12.4951H13.7545V12.4998H13.7498V12.4951Z" stroke="#7E7E7E" stroke-width="1.5" stroke-linecap="round" stroke-linejoin="round"/>
</svg>
