<svg width="20" height="20" viewBox="0 0 20 20" fill="none" xmlns="http://www.w3.org/2000/svg">
<path d="M5.83337 18.5458C7.90444 18.5458 9.58337 16.8669 9.58337 14.7958C9.58337 12.7248 7.90444 11.0458 5.83337 11.0458C3.76231 11.0458 2.08337 12.7248 2.08337 14.7958C2.08337 16.8669 3.76231 18.5458 5.83337 18.5458Z" stroke="#272727" stroke-width="1.5" stroke-linecap="round" stroke-linejoin="round"/>
<path d="M18.3333 12.5C18.3333 15.725 15.725 18.3333 12.5 18.3333L13.375 16.875" stroke="#272727" stroke-width="1.5" stroke-linecap="round" stroke-linejoin="round"/>
<path d="M1.66669 7.50002C1.66669 4.27502 4.27502 1.66669 7.50002 1.66669L6.62503 3.12502" stroke="#272727" stroke-width="1.5" stroke-linecap="round" stroke-linejoin="round"/>
<path d="M15.4167 9.16669C17.4878 9.16669 19.1667 7.48776 19.1667 5.41669C19.1667 3.34562 17.4878 1.66669 15.4167 1.66669C13.3456 1.66669 11.6667 3.34562 11.6667 5.41669C11.6667 7.48776 13.3456 9.16669 15.4167 9.16669Z" stroke="#272727" stroke-width="1.5" stroke-linecap="round" stroke-linejoin="round"/>
</svg>
