<svg width="16" height="16" viewBox="0 0 16 16" fill="none" xmlns="http://www.w3.org/2000/svg">
<path d="M5.10986 5.29321L7.8164 7.99976L10.5229 5.29321" stroke="#5F5F5F" stroke-width="1.5" stroke-linecap="round" stroke-linejoin="round"/>
<path d="M7.81677 1.2334L7.81677 7.99976" stroke="#5F5F5F" stroke-width="1.2" stroke-linecap="round" stroke-linejoin="round"/>
<path d="M3 9C1.89543 9 1 9.89543 1 11C1 12.1046 1.89543 13 3 13C4.10457 13 5 12.1046 5 11C5 9.89543 4.10457 9 3 9Z" stroke="#5F5F5F" stroke-width="1.2" stroke-linecap="round" stroke-linejoin="round"/>
<path d="M12 10C10.8954 10 10 10.8954 10 12C10 13.1046 10.8954 14 12 14C13.1046 14 14 13.1046 14 12C14 10.8954 13.1046 10 12 10Z" stroke="#5F5F5F" stroke-width="1.2" stroke-linecap="round" stroke-linejoin="round"/>
</svg>
