<svg width="180" height="128" viewBox="0 0 180 128" fill="none" xmlns="http://www.w3.org/2000/svg">
<path d="M84.882 109.925C131.761 109.925 169.764 104.234 169.764 97.2149C169.764 90.1954 131.761 84.5049 84.882 84.5049C38.003 84.5049 0 90.1954 0 97.2149C0 104.234 38.003 109.925 84.882 109.925Z" fill="white"/>
<path d="M91.3165 37.1417H79.2902V34.4584C79.2902 31.1375 81.9824 28.4453 85.3033 28.4453C88.6242 28.4453 91.3164 31.1375 91.3164 34.4584L91.3165 37.1417Z" fill="#D4D4D4"/>
<path d="M91.315 34.4426V37.1607H79.2808V36.4215H90.5777V33.7451C90.5777 32.2685 90.0338 30.9095 89.1808 29.8633C90.4999 30.9874 91.315 32.6193 91.315 34.4426Z" fill="#D4D4D4"/>
<path d="M106.338 55.8305V82.5773H64.2571V55.8305C64.2571 44.2247 73.6907 34.791 85.2985 34.791C96.9045 34.791 106.338 44.2247 106.338 55.8305Z" fill="#D4D4D4"/>
<path d="M106.338 55.8321V70.7494H104.823V66.7916V54.3196C104.823 49.0389 102.882 44.1485 99.6223 40.46C103.775 44.3039 106.338 49.778 106.338 55.8321Z" fill="#D4D4D4"/>
<path d="M106.338 67.1278V72.7957H64.2568V67.1278C64.9183 67.0122 65.616 66.9346 66.3154 66.9346H104.279C104.979 66.9346 105.678 67.0122 106.338 67.1278Z" fill="#D4D4D4"/>
<path d="M93.0504 89.1641H77.5562V89.6947C77.5562 93.9732 81.0247 97.4417 85.3032 97.4417C89.5818 97.4417 93.0503 93.9732 93.0503 89.6947L93.0504 89.1641Z" fill="#D4D4D4"/>
<path d="M93.0621 89.1768V89.681C93.0621 91.8551 92.1694 93.796 90.7705 95.1931C89.3735 96.59 87.4325 97.4449 85.2982 97.4449C82.8911 97.4449 80.7549 96.3587 79.3201 94.6491C80.679 95.8925 82.5405 96.7075 84.561 96.7075C86.6953 96.7075 88.6363 95.8148 90.0332 94.4177C91.3922 93.0586 92.2072 91.2334 92.285 89.1768H93.0621Z" fill="#D4D4D4"/>
<path d="M68.0375 64.4473C67.7896 56.2046 67.3569 46.1289 75.0648 40.8345C75.4025 40.5707 75.8984 40.646 76.1429 40.9986C76.39 41.3498 76.2857 41.8403 75.9202 42.0652C68.3329 46.6445 68.3035 56.5083 68.0375 64.4473Z" fill="white"/>
<path d="M104.278 67.7031H66.3284C61.0189 67.7031 56.7147 72.0073 56.7147 77.3169C56.7147 82.6264 61.0189 86.9306 66.3284 86.9306H104.278C109.588 86.9306 113.892 82.6264 113.892 77.3169C113.892 72.0073 109.588 67.7031 104.278 67.7031Z" fill="#D4D4D4"/>
<path d="M113.906 77.2988C113.906 82.6174 109.598 86.9258 104.279 86.9258H66.3149C63.6745 86.9258 61.2693 85.8397 59.5595 84.0921C59.3662 83.8988 59.2108 83.7434 59.0553 83.5482C60.7252 84.9451 62.8215 85.762 65.151 85.762H103.115C108.434 85.762 112.742 81.4517 112.742 76.1729C112.742 73.7656 111.849 71.5537 110.375 69.8838C110.608 70.079 110.839 70.2724 111.072 70.5055C112.82 72.2531 113.906 74.6585 113.906 77.2988Z" fill="#D4D4D4"/>
<path d="M59.5426 74.3287C60.5537 72.0355 63.0122 69.7717 65.7111 70.1649C65.711 70.1646 72.9665 70.3522 72.9665 70.3522L87.4836 70.7273C82.6381 70.8564 70.3863 71.1663 65.711 71.29C63.2905 71.1493 61.8223 72.8167 60.8729 75.0262C60.4659 75.9908 58.9812 75.2187 59.5426 74.3287Z" fill="white"/>
<path d="M51.0702 25.0845H47.064V21.0791H44.2206V25.0845H40.215V27.926H44.2206V31.9307H47.064V27.926H51.0702V25.0845Z" fill="#C5C5C5"/>
<path d="M158.29 105.467H154.283V101.462H151.44V105.467H147.434V108.309H151.44V112.314H154.283V108.309H158.29V105.467Z" fill="#C5C5C5"/>
<path d="M38.001 42.6521H35.0958V39.748H33.0339V42.6521H30.1287V44.7132H33.0339V47.618H35.0958V44.7132H38.001V42.6521Z" fill="#C5C5C5"/>
<path d="M145.22 123.034H142.315V120.13H140.253V123.034H137.348V125.095H140.253V128H142.315V125.095H145.22V123.034Z" fill="#C5C5C5"/>
<path d="M50.7801 1.41803C50.7801 2.20124 50.145 2.83675 49.3608 2.83675C48.5773 2.83675 47.9422 2.20193 47.9422 1.41803C47.9422 0.634817 48.5773 5.56524e-07 49.3608 5.56524e-07C50.145 -0.000686472 50.7801 0.634817 50.7801 1.41803Z" fill="#CBCBCB"/>
<path d="M157.999 81.8008C157.999 82.5841 157.364 83.2196 156.58 83.2196C155.797 83.2196 155.162 82.5847 155.162 81.8008C155.162 81.0176 155.797 80.3828 156.58 80.3828C157.364 80.3821 157.999 81.0176 157.999 81.8008Z" fill="#CBCBCB"/>
<path d="M21.1207 3.15113C21.1207 4.63442 19.9179 5.83741 18.4333 5.83741C16.9488 5.83741 15.746 4.63442 15.746 3.15113C15.746 1.66783 16.9494 0.464844 18.4333 0.464844C19.9172 0.464844 21.1207 1.66783 21.1207 3.15113Z" fill="#CBCBCB"/>
<path d="M128.34 83.5339C128.34 85.0172 127.137 86.2202 125.653 86.2202C124.168 86.2202 122.965 85.0172 122.965 83.5339C122.965 82.0506 124.169 80.8477 125.653 80.8477C127.137 80.8477 128.34 82.0506 128.34 83.5339Z" fill="#CBCBCB"/>
<path d="M70.0934 12.7075C71.5775 12.7075 72.7807 11.5048 72.7807 10.0212C72.7807 8.53765 71.5775 7.33496 70.0934 7.33496C68.6092 7.33496 67.406 8.53765 67.406 10.0212C67.406 11.5048 68.6092 12.7075 70.0934 12.7075Z" fill="#CBCBCB"/>
<path d="M177.313 93.0903C178.797 93.0903 180 91.8877 180 90.4041C180 88.9205 178.797 87.7178 177.313 87.7178C175.829 87.7178 174.625 88.9205 174.625 90.4041C174.625 91.8877 175.829 93.0903 177.313 93.0903Z" fill="#CBCBCB"/>
</svg>
