<svg width="180" height="128" viewBox="0 0 180 128" fill="none" xmlns="http://www.w3.org/2000/svg">
<path d="M84.882 109.925C131.761 109.925 169.764 104.234 169.764 97.2149C169.764 90.1954 131.761 84.5049 84.882 84.5049C38.003 84.5049 0 90.1954 0 97.2149C0 104.234 38.003 109.925 84.882 109.925Z" fill="white"/>
<path d="M95.5203 29.5394C94.7805 28.8215 93.7921 28.417 92.7613 28.4102L60.0661 28.1944C57.857 28.1798 56.0543 29.9588 56.0398 32.1679L55.6362 93.3326C55.6216 95.5417 57.4006 97.3444 59.6097 97.359L110.686 97.6963C112.895 97.7109 114.698 95.932 114.713 93.7229L115.001 50.1603C115.008 49.0694 114.569 48.0229 113.786 47.2632L95.5203 29.5394Z" fill="#D4D4D4"/>
<path d="M94.3674 28.4209L115.012 48.4526L94.2361 48.3152L94.3674 28.4209Z" fill="#949494"/>
<path d="M51.0702 25.0845H47.064V21.0791H44.2206V25.0845H40.215V27.926H44.2206V31.9307H47.064V27.926H51.0702V25.0845Z" fill="#CBCBCB"/>
<path d="M158.29 105.467H154.283V101.462H151.44V105.467H147.434V108.309H151.44V112.314H154.283V108.309H158.29V105.467Z" fill="#CBCBCB"/>
<path d="M38.001 42.6521H35.0958V39.748H33.0339V42.6521H30.1287V44.7132H33.0339V47.618H35.0958V44.7132H38.001V42.6521Z" fill="#CBCBCB"/>
<path d="M145.22 123.034H142.315V120.13H140.253V123.034H137.348V125.095H140.253V128H142.315V125.095H145.22V123.034Z" fill="#CBCBCB"/>
<path d="M50.7801 1.41803C50.7801 2.20124 50.145 2.83675 49.3608 2.83675C48.5773 2.83675 47.9422 2.20193 47.9422 1.41803C47.9422 0.634817 48.5773 5.56524e-07 49.3608 5.56524e-07C50.145 -0.000686472 50.7801 0.634817 50.7801 1.41803Z" fill="#CBCBCB"/>
<path d="M157.999 81.8008C157.999 82.5841 157.364 83.2196 156.58 83.2196C155.797 83.2196 155.162 82.5847 155.162 81.8008C155.162 81.0176 155.797 80.3828 156.58 80.3828C157.364 80.3821 157.999 81.0176 157.999 81.8008Z" fill="#CBCBCB"/>
<path d="M21.1207 3.15113C21.1207 4.63442 19.9179 5.83741 18.4333 5.83741C16.9488 5.83741 15.746 4.63442 15.746 3.15113C15.746 1.66783 16.9494 0.464844 18.4333 0.464844C19.9172 0.464844 21.1207 1.66783 21.1207 3.15113Z" fill="#CBCBCB"/>
<path d="M128.34 83.5339C128.34 85.0172 127.137 86.2202 125.653 86.2202C124.168 86.2202 122.965 85.0172 122.965 83.5339C122.965 82.0506 124.169 80.8477 125.653 80.8477C127.137 80.8477 128.34 82.0506 128.34 83.5339Z" fill="#CBCBCB"/>
<path d="M70.0934 12.7075C71.5775 12.7075 72.7807 11.5048 72.7807 10.0212C72.7807 8.53765 71.5775 7.33496 70.0934 7.33496C68.6092 7.33496 67.406 8.53765 67.406 10.0212C67.406 11.5048 68.6092 12.7075 70.0934 12.7075Z" fill="#CBCBCB"/>
<path d="M177.313 93.0903C178.797 93.0903 180 91.8877 180 90.4041C180 88.9205 178.797 87.7178 177.313 87.7178C175.829 87.7178 174.625 88.9205 174.625 90.4041C174.625 91.8877 175.829 93.0903 177.313 93.0903Z" fill="#CBCBCB"/>
<path d="M105.136 84.7542L102.793 87.0967L123.796 108.091L126.139 105.749L105.136 84.7542Z" fill="#949494"/>
<path d="M105.864 83.4169L101.456 87.8252L107.6 93.9698L112.009 89.5615L105.864 83.4169Z" fill="#737373"/>
<g opacity="0.2">
<path d="M103.967 85.9261C98.4731 91.4174 89.5341 91.4174 84.0406 85.9261C78.5472 80.4348 78.5472 71.4994 84.0406 66.0081C89.5341 60.5168 98.4731 60.5168 103.967 66.0081C109.46 71.4994 109.46 80.4348 103.967 85.9261Z" fill="#D4D4D4"/>
</g>
<path d="M105.304 87.2631C99.0734 93.4914 88.9343 93.4918 82.7035 87.2631C76.4727 81.0343 76.4727 70.8997 82.7035 64.6714C88.9343 58.4431 99.0734 58.4427 105.304 64.6714C111.535 70.8997 111.535 81.0343 105.304 87.2631ZM85.0465 67.0135C80.1074 71.9507 80.1078 79.9833 85.0465 84.9201C89.9853 89.8569 98.0216 89.8573 102.96 84.9201C107.899 79.9829 107.899 71.9503 102.96 67.0135C98.0216 62.0767 89.9857 62.0763 85.0465 67.0135Z" fill="#949494"/>
</svg>
