<svg width="20" height="20" viewBox="0 0 20 20" fill="none" xmlns="http://www.w3.org/2000/svg">
<path d="M4.56666 15.4083V12.9749C4.56666 12.1666 5.19999 11.4416 6.09999 11.4416C6.90832 11.4416 7.63332 12.0749 7.63332 12.9749V15.3166C7.63332 16.9416 6.28331 18.2916 4.65831 18.2916C3.03331 18.2916 1.68331 16.9333 1.68331 15.3166V10.1832C1.59164 5.4999 5.29165 1.70825 9.97498 1.70825C14.6583 1.70825 18.35 5.49992 18.35 10.0916V15.2249C18.35 16.8499 17 18.2 15.375 18.2C13.75 18.2 12.4 16.8499 12.4 15.2249V12.8833C12.4 12.0749 13.0333 11.3499 13.9333 11.3499C14.7417 11.3499 15.4666 11.9833 15.4666 12.8833V15.4083" stroke="#7E7E7E" stroke-width="1.5" stroke-linecap="round" stroke-linejoin="round"/>
<path d="M12.9417 7.59999H12.2667C12.0833 7.59999 11.9083 7.70833 11.825 7.86667L11.2 9.11667C11.1083 9.3 10.85 9.3 10.7583 9.11667L9.225 6.05835C9.13333 5.88335 8.88332 5.87501 8.79165 6.05001L8.09165 7.34166C8.00832 7.5 7.84166 7.59999 7.65833 7.59999H7.04999" stroke="#7E7E7E" stroke-width="1.5" stroke-linecap="round" stroke-linejoin="round"/>
</svg>
