<svg width="140" height="140" viewBox="0 0 140 140" fill="none" xmlns="http://www.w3.org/2000/svg">
<path d="M70.0036 140C70.0017 140 70.001 140 69.9997 140C51.3021 140 33.7235 132.719 20.5025 119.497C19.7437 118.738 19.0017 117.962 18.2782 117.169C17.8606 116.712 17.8934 116.003 18.3502 115.585C18.8071 115.168 19.5167 115.201 19.9338 115.658C20.6344 116.425 21.3523 117.177 22.0873 117.912C34.8856 130.71 51.9013 137.758 69.9997 137.758C70.0005 137.758 70.0024 137.758 70.0029 137.758C81.7927 137.758 93.41 134.677 103.602 128.848C104.139 128.54 104.824 128.728 105.132 129.264C105.439 129.802 105.252 130.486 104.715 130.794C94.1853 136.816 82.1819 140 70.0036 140ZM121.682 116.654C121.419 116.654 121.154 116.562 120.941 116.374C120.476 115.964 120.432 115.256 120.841 114.792C131.75 102.414 137.758 86.5072 137.758 70.0003V69.7981C137.758 69.1789 138.26 68.6771 138.879 68.6771C139.498 68.6771 140 69.1789 140 69.7981V70.0003C140 87.053 133.793 103.487 122.523 116.274C122.301 116.526 121.992 116.654 121.682 116.654ZM1.12093 71.1711C0.501609 71.1711 0 70.7199 0 70.1006V70.0001C0 52.9844 6.18251 36.5781 17.408 23.8017C17.8174 23.3379 18.5245 23.2911 18.9901 23.6993C19.4552 24.1083 19.5007 24.8165 19.0926 25.2816C8.22602 37.6482 2.24187 53.5296 2.24187 69.9999C2.24204 70.6194 1.74026 71.1711 1.12093 71.1711ZM120.825 24.6329C120.522 24.6329 120.219 24.5105 119.999 24.2691C119.319 23.5264 118.623 22.7992 117.912 22.0876C105.114 9.29003 88.0982 2.24187 69.9996 2.24187C69.9989 2.24187 69.9971 2.24187 69.9964 2.24187C58.1718 2.24187 46.5255 5.33936 36.3122 11.2014C35.7764 11.5085 35.0901 11.3235 34.7817 10.787C34.4739 10.2499 34.6591 9.565 35.1962 9.25718C45.7475 3.20116 57.7819 0 69.9964 0C69.9976 0 69.9983 0 69.9996 0C88.6973 0 106.276 7.28114 119.497 20.5029C120.232 21.2371 120.95 21.9885 121.652 22.7551C122.07 23.2119 122.038 23.9208 121.582 24.3386C121.367 24.5356 121.096 24.6329 120.825 24.6329Z" fill="#23C55F"/>
</svg>
