<svg width="14" height="18" viewBox="0 0 14 18" fill="none" xmlns="http://www.w3.org/2000/svg">
<path d="M10.1242 3.875C10.1242 4.7038 9.79493 5.49866 9.20887 6.08471C8.62282 6.67076 7.82797 7 6.99917 7C6.17037 7 5.37551 6.67076 4.78946 6.08471C4.20341 5.49866 3.87417 4.7038 3.87417 3.875C3.87417 3.0462 4.20341 2.25134 4.78946 1.66529C5.37551 1.07924 6.17037 0.75 6.99917 0.75C7.82797 0.75 8.62282 1.07924 9.20887 1.66529C9.79493 2.25134 10.1242 3.0462 10.1242 3.875ZM0.75 15.64C0.776779 14.0003 1.44695 12.4368 2.61598 11.2867C3.78501 10.1366 5.35924 9.49206 6.99917 9.49206C8.63909 9.49206 10.2133 10.1366 11.3824 11.2867C12.5514 12.4368 13.2216 14.0003 13.2483 15.64C11.2878 16.539 9.15596 17.0029 6.99917 17C4.76917 17 2.6525 16.5133 0.75 15.64Z" stroke="#626262" stroke-width="1.5" stroke-linecap="round" stroke-linejoin="round"/>
</svg>
