<svg width="20" height="20" viewBox="0 0 20 20" fill="none" xmlns="http://www.w3.org/2000/svg">
<path d="M9.16667 12.5H10.8333C11.2754 12.5 11.6993 12.3244 12.0118 12.0118C12.3244 11.6993 12.5 11.2754 12.5 10.8333C12.5 10.3913 12.3244 9.96739 12.0118 9.65483C11.6993 9.34227 11.2754 9.16667 10.8333 9.16667H8.33333C7.83333 9.16667 7.41667 9.33334 7.16667 9.66667L2.5 14.1667" stroke="#C0C0C0" stroke-width="1.2" stroke-linecap="round" stroke-linejoin="round"/>
<path d="M5.83331 17.5L7.16665 16.3333C7.41665 16 7.83331 15.8333 8.33331 15.8333H11.6666C12.5833 15.8333 13.4166 15.5 14 14.8333L17.8333 11.1667C18.1549 10.8628 18.3426 10.4436 18.3551 10.0013C18.3676 9.55903 18.2039 9.12991 17.9 8.80833C17.5961 8.48676 17.1769 8.29907 16.7346 8.28657C16.2923 8.27407 15.8632 8.43777 15.5416 8.74166L12.0416 11.9917" stroke="#C0C0C0" stroke-width="1.2" stroke-linecap="round" stroke-linejoin="round"/>
<path d="M1.66669 13.3333L6.66669 18.3333" stroke="#C0C0C0" stroke-width="1.2" stroke-linecap="round" stroke-linejoin="round"/>
<path d="M13.3334 9.91666C14.668 9.91666 15.75 8.83468 15.75 7.49999C15.75 6.16531 14.668 5.08333 13.3334 5.08333C11.9987 5.08333 10.9167 6.16531 10.9167 7.49999C10.9167 8.83468 11.9987 9.91666 13.3334 9.91666Z" stroke="#C0C0C0" stroke-width="1.2" stroke-linecap="round" stroke-linejoin="round"/>
<path d="M5 6.66667C6.38071 6.66667 7.5 5.54738 7.5 4.16667C7.5 2.78596 6.38071 1.66667 5 1.66667C3.61929 1.66667 2.5 2.78596 2.5 4.16667C2.5 5.54738 3.61929 6.66667 5 6.66667Z" stroke="#C0C0C0" stroke-width="1.2" stroke-linecap="round" stroke-linejoin="round"/>
</svg>
