<svg width="20" height="20" viewBox="0 0 20 20" fill="none" xmlns="http://www.w3.org/2000/svg">
<path d="M10 18.333C14.5917 18.333 18.3334 14.5913 18.3334 9.99968C18.3334 5.40801 14.5917 1.66634 10 1.66634C5.40837 1.66634 1.66671 5.40801 1.66671 9.99967C1.66671 14.5913 5.40837 18.333 10 18.333ZM10.625 13.333C10.625 13.6747 10.3417 13.958 10 13.958C9.65837 13.958 9.37504 13.6747 9.37504 13.333L9.37504 9.16634C9.37504 8.82467 9.65837 8.54134 10 8.54134C10.3417 8.54134 10.625 8.82467 10.625 9.16634L10.625 13.333ZM9.23337 6.34968C9.27504 6.24134 9.33338 6.15801 9.40837 6.07468C9.49171 5.99968 9.58337 5.94134 9.68337 5.89967C9.78337 5.85801 9.89171 5.83301 10 5.83301C10.1084 5.83301 10.2167 5.85801 10.3167 5.89967C10.4167 5.94134 10.5084 5.99968 10.5917 6.07468C10.6667 6.15801 10.725 6.24134 10.7667 6.34968C10.8084 6.44968 10.8334 6.55801 10.8334 6.66634C10.8334 6.77467 10.8084 6.88301 10.7667 6.98301C10.725 7.08301 10.6667 7.17468 10.5917 7.25801C10.5084 7.33301 10.4167 7.39134 10.3167 7.43301C10.1167 7.51634 9.88337 7.51634 9.68337 7.43301C9.58337 7.39134 9.49171 7.33301 9.40837 7.25801C9.33337 7.17467 9.27504 7.08301 9.23337 6.98301C9.19171 6.88301 9.16671 6.77467 9.16671 6.66634C9.16671 6.55801 9.19171 6.44968 9.23337 6.34968Z" fill="#EAB308"/>
</svg>
