<svg width="17" height="21" viewBox="0 0 17 21" fill="none" xmlns="http://www.w3.org/2000/svg">
<path d="M1.875 0C0.839467 0 0 0.839465 0 1.875V19.125C0 20.1605 0.839466 21 1.875 21H14.625C15.6605 21 16.5 20.1605 16.5 19.125V11.25C16.5 9.17893 14.8211 7.5 12.75 7.5H10.875C9.83947 7.5 9 6.66053 9 5.625V3.75C9 1.67893 7.32107 0 5.25 0H1.875Z" fill="#272727"/>
<path d="M9.22119 0.315905C10.018 1.23648 10.5 2.43695 10.5 3.75V5.625C10.5 5.83211 10.6679 6 10.875 6H12.75C14.0631 6 15.2635 6.48204 16.1841 7.27881C15.2962 3.87988 12.6201 1.20377 9.22119 0.315905Z" fill="#272727"/>
</svg>
