<svg width="20" height="20" viewBox="0 0 20 20" fill="none" xmlns="http://www.w3.org/2000/svg">
<path d="M13.6127 13.3833L10.2295 10.0001L6.84632 13.3833" stroke="#EAB40D" stroke-width="1.5" stroke-linecap="round" stroke-linejoin="round"/>
<path d="M10.2291 18.458V10" stroke="#EAB40D" stroke-width="1.5" stroke-linecap="round" stroke-linejoin="round"/>
<path d="M16.25 8.75C17.6307 8.75 18.75 7.63071 18.75 6.25C18.75 4.86929 17.6307 3.75 16.25 3.75C14.8693 3.75 13.75 4.86929 13.75 6.25C13.75 7.63071 14.8693 8.75 16.25 8.75Z" stroke="#EAB40D" stroke-width="1.2" stroke-linecap="round" stroke-linejoin="round"/>
<path d="M5 7.5C6.38071 7.5 7.5 6.38071 7.5 5C7.5 3.61929 6.38071 2.5 5 2.5C3.61929 2.5 2.5 3.61929 2.5 5C2.5 6.38071 3.61929 7.5 5 7.5Z" stroke="#EAB40D" stroke-width="1.2" stroke-linecap="round" stroke-linejoin="round"/>
</svg>
